<?xml version="1.0" encoding="iso-8859-1"?>
<!-- Generator: Adobe Illustrator 18.1.1, SVG Export Plug-In . SVG Version: 6.00 Build 0)  -->
<svg version="1.1" id="Capa_1" xmlns="http://www.w3.org/2000/svg" xmlns:xlink="http://www.w3.org/1999/xlink" x="0px" y="0px"
	 viewBox="0 0 456.557 456.557" style="fill:#fff; enable-background:new 0 0 456.557 456.557;" xml:space="preserve">
<g>
	<path d="M443.128,401.235h-429.7C6.011,401.235,0,395.224,0,387.807V113.346c0-4.721,2.476-9.092,6.525-11.519
		c4.06-2.42,9.078-2.542,13.236-0.322l207.346,110.862l175.401-130.19H13.428C6.011,82.178,0,76.167,0,68.75
		s6.011-13.428,13.428-13.428h429.535c0.322,0.003,0.615,0.003,0.927,0.021c1.867,0.105,3.637,0.591,5.224,1.385
		c1.626,0.808,3.112,1.958,4.336,3.434c1.07,1.283,1.902,2.766,2.434,4.385v0.003c0.004,0.003,0.004,0.007,0.007,0.01
		c0.462,1.413,0.682,2.874,0.664,4.329v318.918C456.556,395.224,450.545,401.235,443.128,401.235z M26.856,374.379H429.7V95.438
		L236.282,239.003c-4.182,3.102-9.756,3.504-14.337,1.06L26.856,135.754V374.379z"/>
	<path d="M359.318,336.347c-2.228,0-4.473-0.689-6.396-2.116l-71.61-53.153c-4.763-3.535-5.759-10.267-2.224-15.03
		c3.539-4.77,10.263-5.763,15.03-2.224l71.61,53.153c4.763,3.535,5.759,10.267,2.224,15.03
		C365.843,334.847,362.601,336.347,359.318,336.347z"/>
	<path d="M97.336,336.343c-3.28,0-6.522-1.5-8.63-4.336c-3.539-4.763-2.546-11.491,2.217-15.03l71.561-53.156
		c4.763-3.539,11.491-2.546,15.03,2.217c3.539,4.763,2.546,11.491-2.217,15.03l-71.561,53.156
		C101.809,335.654,99.564,336.343,97.336,336.343z"/>
</g>
<g>
</g>
<g>
</g>
<g>
</g>
<g>
</g>
<g>
</g>
<g>
</g>
<g>
</g>
<g>
</g>
<g>
</g>
<g>
</g>
<g>
</g>
<g>
</g>
<g>
</g>
<g>
</g>
<g>
</g>
</svg>
