<?xml version="1.0" encoding="iso-8859-1"?>
<!-- Generator: Adobe Illustrator 19.1.0, SVG Export Plug-In . SVG Version: 6.00 Build 0)  -->
<svg version="1.1" id="Capa_1" xmlns="http://www.w3.org/2000/svg" xmlns:xlink="http://www.w3.org/1999/xlink" x="0px" y="0px"
	 viewBox="0 0 614.218 614.218" style="enable-background:new 0 0 614.218 614.218;" xml:space="preserve">
<g>
	<g>
	</g>
	<g>
	</g>
	<g>
	</g>
	<g>
	</g>
	<g>
	</g>
	<g>
	</g>
	<g>
	</g>
	<g>
	</g>
	<g>
	</g>
	<g>
	</g>
	<g>
	</g>
	<g>
	</g>
	<g>
	</g>
	<g>
	</g>
	<g>
	</g>
</g>
<g>
	<circle style="fill:#fff;" cx="244.564" cy="332.633" r="10.639"/>
	<circle style="fill:#fff;" cx="368.092" cy="332.633" r="10.639"/>
	<path style="fill:#fff;" d="M613.524,409.507L448.004,82.281c-6.887-18.53-25.267-31.175-48.23-31.175H214.659
		c-25.737,0-47.126,15.922-51.963,38.129L0.694,409.587c-0.798,1.581-0.912,3.387-0.32,5.055c0.597,1.672,1.849,3.005,3.468,3.726
		l69.508,30.932c0.85,0.377,1.748,0.554,2.627,0.554c2.312,0,4.538-1.249,5.704-3.404l79.988-148.416l0.005,235.736
		c-0.073,0.269-0.061,0.543-0.103,0.826c-0.149,1.01,0.25,2.001,0.25,2.927v2.514c0,2.838,1.775,5.346,4.484,6.186
		c0.631,0.196,1.244,0.291,1.884,0.291c2.092,0,4.09-1.018,5.318-2.809l0.051-0.088l131.575,19.416
		c0.349,0.053,0.695,0.076,1.044,0.076c0.349,0,0.701-0.024,1.05-0.081l131.204-19.43l0.736,1.071
		c1.228,1.791,3.244,2.809,5.336,2.809c0.64,0,1.285-0.091,1.92-0.291c2.709-0.841,4.557-3.349,4.557-6.186l-0.024-245.926
		l81.58,151.372c1.161,2.159,3.392,3.401,5.704,3.401c0.884,0,1.777-0.182,2.627-0.564l69.513-30.942
		c1.615-0.721,2.871-2.073,3.463-3.745C614.436,412.932,614.321,411.088,613.524,409.507z M392.005,64.106
		c0,0,0.012,0.382,0.049,0.665l16.142,123.717l-79.898,139.454c-1.127,1.973-1.142,4.368-0.033,6.351l62.629,112.243
		c1.185,2.126,3.387,3.319,5.661,3.319c1.07,0,2.15-0.266,3.153-0.82c3.12-1.744,4.242-5.691,2.498-8.81l-60.847-109.059
		l79.158-138.223c0.702-1.228,0.984-2.651,0.803-4.056L405.042,64.046c11.918,1.296,21.621,6.982,27.334,15.532
		c0.013,0.05,0.021,0.101,0.035,0.151c2.522,8.922,4.318,21.146,5.572,35.129l0.041,405.278L319.89,348.296l63.522-284.19H392.005z
		 M73.202,435.017l-57.764-25.735l146.384-289.456v18.99c-2,38.267-1,81.36,0,107.649v24.258L73.202,435.017z M174.62,245.202
		l-0.002-105.705c1.101-24.035,3.266-45.891,7.189-59.762c0.172-0.61,0.25-1.225,0.244-1.831c6.043-7.322,15.3-12.258,26.02-13.7
		l-16.256,124.679c-0.182,1.404,0.1,2.828,0.803,4.056l79.163,138.223l-60.847,109.058c-1.744,3.12-0.626,7.07,2.498,8.809
		c0.998,0.559,2.083,0.822,3.148,0.822c2.274,0,4.476-1.199,5.661-3.32l62.629-112.254c1.108-1.983,1.094-4.405-0.033-6.373
		L204.942,188.4l16.137-123.637c0.036-0.28,0.048-0.658,0.049-0.658h8.325l63.307,283.223l-118.135,171.93l-0.006-245.211
		l0.23-0.449c0.564-1.046,0.831-2.237,0.769-3.422C175.6,269.811,175.109,260.138,174.62,245.202z M306.175,548.699l-123.589-18.239
		l122.452-178.299c1.018-1.486,1.376-3.144,0.984-4.902L242.729,64.106h127.412l-63.508,284.118
		c-0.392,1.758-0.033,3.509,0.984,4.99l121.783,177.282L306.175,548.699z M541.092,435.017L451.625,269.02
		c0.674-13.711,4.299-94.602-0.459-151.928l147.734,292.191L541.092,435.017z"/>
	<path style="fill:#fff;" d="M75.925,402.905l-36.799-17.551c-2.379-1.132-5.226-0.124-6.368,2.255
		c-1.132,2.384-0.124,5.236,2.255,6.368l36.799,17.547c0.664,0.32,1.366,0.468,2.054,0.468c1.782,0,3.497-0.998,4.314-2.718
		C79.312,406.889,78.304,404.037,75.925,402.905z"/>
	<path style="fill:#fff;" d="M539.42,411.991c0.693,0,1.39-0.148,2.054-0.468l36.799-17.551c2.384-1.132,3.392-3.984,2.255-6.368
		c-1.142-2.379-3.989-3.387-6.368-2.255L537.361,402.9c-2.384,1.132-3.387,3.984-2.255,6.368
		C535.928,410.992,537.638,411.991,539.42,411.991z"/>
</g>
<g>
</g>
<g>
</g>
<g>
</g>
<g>
</g>
<g>
</g>
<g>
</g>
<g>
</g>
<g>
</g>
<g>
</g>
<g>
</g>
<g>
</g>
<g>
</g>
<g>
</g>
<g>
</g>
<g>
</g>
</svg>
